<svg width="217" height="111" viewBox="0 0 217 111" fill="none" xmlns="http://www.w3.org/2000/svg">
<path d="M1.65601 92.6471C5.40001 94.1591 11.376 95.5991 19.8 95.5991C30.024 95.5991 36.792 90.0551 36.792 81.9911C36.792 73.6391 30.384 69.1031 20.52 64.3511C12.024 60.2471 7.34401 57.6551 7.27201 52.7591C7.12801 47.7911 11.808 45.1271 16.2 45.1271C22.896 45.1271 30.096 51.9671 34.704 61.3271H34.848L33.264 46.7831C30.168 45.3431 25.776 44.0471 18.648 44.0471C9.64801 44.0471 2.08801 48.4391 2.08801 56.7191C2.08801 65.2151 9.36001 69.0311 16.632 72.7031C24.12 76.5191 31.32 79.9751 31.32 86.4551C31.32 91.8551 26.712 94.5191 21.888 94.3751C13.032 94.1591 5.68801 86.8871 0.576007 73.9271H0.432007L1.65601 92.6471Z" fill="white"/>
<path d="M37.9839 50.2391C39.6399 51.5351 41.3679 54.7751 41.2959 61.0391L40.8639 95.0231H52.2399C50.4399 93.5111 48.8559 89.3351 48.8559 82.4231V64.7831C50.3679 63.1271 52.3839 61.2551 55.2639 61.4711C58.8639 61.6871 60.1599 65.3591 61.3839 71.7671L65.8479 95.0231H77.1519C75.3519 93.5831 73.2639 90.7751 71.8959 83.7911L69.3759 71.5511C67.4319 61.9751 64.9839 58.4471 58.6479 58.4471C54.3279 58.4471 51.1599 60.7511 48.8559 63.7751V44.6231L37.9839 49.9511V50.2391Z" fill="white"/>
<path d="M76.3746 83.1431C76.3746 90.4151 81.7746 95.5991 89.2626 95.5991C94.6626 95.5991 97.9746 93.2951 100.351 88.9751L102.367 95.0231H112.375C111.151 93.9431 109.855 91.7111 108.487 88.1111C106.975 84.0791 101.791 69.8231 99.8466 64.9991C97.7586 59.8151 93.7266 58.4471 90.4146 58.4471C87.8946 58.4471 85.2306 59.2391 83.2146 60.5351L83.2866 60.6791C85.7346 60.1031 88.6866 60.4631 90.3426 62.9111C92.3586 65.6471 96.6786 78.3911 99.9906 88.1111C98.3346 89.9111 95.9586 90.7031 93.7266 90.7031C87.3186 90.7031 83.9346 85.4471 83.9346 78.6791C83.9346 71.8391 87.9666 67.0871 90.3426 65.1431C81.8466 68.8151 76.3746 75.0071 76.3746 83.1431Z" fill="white"/>
<path d="M111.461 64.0631C113.117 65.3591 114.845 68.5991 114.773 74.8631L114.341 106.903H125.717C123.917 105.391 122.333 100.855 122.333 95.3111V90.9911C123.917 92.5751 127.805 95.5991 132.989 95.5991C139.685 95.5991 148.181 89.8391 148.181 76.5191C148.181 64.3511 140.693 58.4471 133.133 58.4471C127.877 58.4471 123.845 61.6871 122.333 64.2791V58.4471L111.461 63.7751V64.0631ZM122.333 65.7911C123.557 63.4151 126.653 61.0391 129.605 61.0391C135.365 61.0391 139.901 66.5111 139.973 77.2391C139.973 88.0391 135.005 92.9351 129.893 92.9351C126.221 92.9351 123.773 90.9911 122.333 89.6231V65.7911Z" fill="white"/>
<path d="M186.352 77.5991C185.272 84.3671 179.8 88.9751 172.24 88.9751C164.32 88.9751 157.768 83.2871 157.768 74.7911C157.768 73.9271 157.84 73.0631 157.912 72.1991H183.112C183.112 63.3431 176.488 58.4471 168.784 58.4471C158.56 58.4471 150.136 66.2231 150.136 77.1671C150.136 87.6791 158.344 95.5991 168.64 95.5991C178.72 95.5991 186.352 87.2471 186.496 77.5991H186.352ZM169 59.3111C173.032 59.3111 175.768 61.6871 175.768 64.7831C175.768 68.8871 173.176 71.4791 165.76 71.4791H157.984C159.064 64.3511 163.384 59.3111 169 59.3111Z" fill="white"/>
<path d="M216.205 85.0151C215.989 79.1831 211.021 76.2311 204.037 72.9191C197.557 69.9671 194.029 67.9511 193.885 64.2791C193.741 61.1111 196.837 59.1671 200.725 59.4551C206.557 59.8871 211.021 64.7831 213.757 71.8391H213.901L213.325 60.8231C210.877 59.6711 207.277 58.5191 202.597 58.4471C194.317 58.2311 188.125 61.4711 188.269 68.3831C188.485 74.5751 193.669 77.3111 200.869 80.9111C205.837 83.3591 210.301 85.2311 210.445 88.8311C210.661 92.5751 207.637 94.6631 202.885 94.5911C198.133 94.4471 192.517 90.2711 188.125 81.1991H187.981L188.701 93.5111C191.653 94.5191 196.405 95.5991 202.453 95.5991C209.725 95.5991 216.349 91.9271 216.205 85.0151Z" fill="white"/>
<path d="M25.2107 108.95C23.6918 109.805 22.0095 110.272 20.3968 110.522C17.5745 110.96 15.2007 110.296 13.3605 108.413C11.1398 106.074 9.77075 102.57 9.083 98.1354L8.91106 97.0266C8.79275 96.2637 8.6989 95.4636 8.62963 94.6263C9.91461 94.8699 11.3089 95.0794 12.8146 95.2409C12.8761 96.3003 12.9786 97.2972 13.1234 98.2313C13.3735 99.8441 13.7244 101.441 14.3081 103.209C14.8919 104.976 15.9171 106.262 17.4845 107.051C18.3847 107.531 19.3231 107.592 20.2302 107.451C22.5485 107.092 26.0591 105.102 30.7308 101.281C35.1625 97.9102 39.2138 94.0822 43.1017 89.8666L50.1649 82.1652C55.2295 76.2189 60.7598 70.6132 66.655 65.3638C66.9261 65.1153 67.298 64.8512 67.7012 64.7886C68.2052 64.7105 68.5388 64.8652 68.6013 65.2684C68.6482 65.5708 68.4935 65.9044 68.1216 66.1685C63.3195 71.1452 58.6339 76.207 54.0803 81.4548C41.6743 95.9714 32.0459 105.103 25.2107 108.95Z" fill="white"/>
<path d="M25.2107 108.95C23.6918 109.805 22.0095 110.272 20.3968 110.522C17.5745 110.96 15.2007 110.296 13.3605 108.413C11.1398 106.074 9.77075 102.57 9.083 98.1354L8.91106 97.0266C8.79275 96.2637 8.6989 95.4636 8.62963 94.6263C9.91461 94.8699 11.3089 95.0794 12.8146 95.2409C12.8761 96.3003 12.9786 97.2972 13.1234 98.2313C13.3735 99.8441 13.7244 101.441 14.3081 103.209C14.8919 104.976 15.9171 106.262 17.4845 107.051C18.3847 107.531 19.3231 107.592 20.2302 107.451C22.5485 107.092 26.0591 105.102 30.7308 101.281C35.1625 97.9102 39.2138 94.0822 43.1017 89.8666L50.1649 82.1652C55.2295 76.2189 60.7598 70.6132 66.655 65.3638C66.9261 65.1153 67.298 64.8512 67.7012 64.7886C68.2052 64.7105 68.5388 64.8652 68.6013 65.2684C68.6482 65.5708 68.4935 65.9044 68.1216 66.1685C63.3195 71.1452 58.6339 76.207 54.0803 81.4548C41.6743 95.9714 32.0459 105.103 25.2107 108.95Z" fill="url(#paint0_linear_4_10)"/>
<path d="M12.7622 91.3389C12.8512 87.8245 13.2741 83.7787 13.9924 79.2075C15.7763 67.7151 18.6398 56.9848 22.5655 47.0192C21.1649 46.2106 19.7438 45.6411 18.3305 45.35C18.3082 45.405 18.286 45.4599 18.2637 45.515C16.1222 51.008 14.1909 57.191 12.5706 64.0483C10.2391 73.347 8.91715 81.2153 8.57397 87.6309C9.90165 89.1004 11.2994 90.3396 12.7622 91.3389Z" fill="white"/>
<path d="M12.7622 91.3389C12.8512 87.8245 13.2741 83.7787 13.9924 79.2075C15.7763 67.7151 18.6398 56.9848 22.5655 47.0192C21.1649 46.2106 19.7438 45.6411 18.3305 45.35C18.3082 45.405 18.286 45.4599 18.2637 45.515C16.1222 51.008 14.1909 57.191 12.5706 64.0483C10.2391 73.347 8.91715 81.2153 8.57397 87.6309C9.90165 89.1004 11.2994 90.3396 12.7622 91.3389Z" fill="url(#paint1_linear_4_10)"/>
<path d="M18.8655 44.0475C24.9323 29.4528 32.0961 18.1715 40.4625 10.281C45.1412 5.83954 48.8916 3.39999 51.8147 2.94669C53.4274 2.6966 54.9323 3.08254 56.3138 4.00371C58.1923 5.46714 59.3269 7.4588 59.7176 9.97868C60.0459 12.0954 59.8858 14.391 59.253 16.9664C58.5576 19.1386 57.8623 21.3108 56.9654 23.5143C56.0685 25.7178 55.2254 27.6033 54.4207 29.0699C53.5308 30.653 52.8182 31.3828 52.3142 31.4609C51.911 31.5235 51.7946 31.4383 51.7477 31.1359C51.6696 30.6319 52.0711 29.2278 53.0689 27.0087C54.7549 23.2378 55.7354 19.5763 56.2119 15.9929C56.4884 13.7825 56.5407 12.1228 56.3688 11.0141C56.2125 10.0061 55.7694 9.14588 55.2255 8.30125C54.4332 7.18549 53.4166 6.6206 52.3079 6.79254C50.292 7.10516 47.4869 8.98522 43.8928 12.4327C40.2986 15.8802 37.0155 20.002 33.9269 24.713C29.9902 30.8601 26.571 37.3859 23.6754 44.2894C22.2267 44.1407 20.6309 44.0541 18.8655 44.0475Z" fill="white"/>
<path d="M18.8655 44.0475C24.9323 29.4528 32.0961 18.1715 40.4625 10.281C45.1412 5.83954 48.8916 3.39999 51.8147 2.94669C53.4274 2.6966 54.9323 3.08254 56.3138 4.00371C58.1923 5.46714 59.3269 7.4588 59.7176 9.97868C60.0459 12.0954 59.8858 14.391 59.253 16.9664C58.5576 19.1386 57.8623 21.3108 56.9654 23.5143C56.0685 25.7178 55.2254 27.6033 54.4207 29.0699C53.5308 30.653 52.8182 31.3828 52.3142 31.4609C51.911 31.5235 51.7946 31.4383 51.7477 31.1359C51.6696 30.6319 52.0711 29.2278 53.0689 27.0087C54.7549 23.2378 55.7354 19.5763 56.2119 15.9929C56.4884 13.7825 56.5407 12.1228 56.3688 11.0141C56.2125 10.0061 55.7694 9.14588 55.2255 8.30125C54.4332 7.18549 53.4166 6.6206 52.3079 6.79254C50.292 7.10516 47.4869 8.98522 43.8928 12.4327C40.2986 15.8802 37.0155 20.002 33.9269 24.713C29.9902 30.8601 26.571 37.3859 23.6754 44.2894C22.2267 44.1407 20.6309 44.0541 18.8655 44.0475Z" fill="url(#paint2_linear_4_10)"/>
<path fill-rule="evenodd" clip-rule="evenodd" d="M75.0504 58.2816C74.1207 58.9418 73.2447 59.2841 72.3376 59.4248C71.2288 59.5967 70.2748 59.435 69.4598 58.8389C69.0097 58.599 68.7613 58.3279 68.6136 58.0411C68.4815 57.8552 68.4034 57.3512 68.2783 56.5448C67.8719 53.9242 67.7226 52.2958 67.7992 51.4582C67.8757 50.6206 68.0374 49.6665 68.4702 48.464C69.3359 46.0589 70.4501 43.925 71.9447 42.2481C73.3386 40.5869 74.8263 39.5304 76.439 39.2803C77.447 39.124 78.5487 39.5725 79.527 40.5562C80.5053 41.5399 81.1812 42.5705 81.3532 43.6792C81.405 44.0132 81.3506 44.5762 81.2869 45.2358C81.2737 45.3724 81.2601 45.5131 81.247 45.6569C81.7749 45.575 82.291 45.4163 82.8725 45.2375C82.9572 45.2114 83.0432 45.185 83.1308 45.1583C83.7356 45.0645 84.6115 44.7222 85.6577 44.1471C86.7039 43.572 88.2229 42.7171 90.2145 41.5825C90.8732 41.1707 91.4467 40.8753 91.8499 40.8128C92.1523 40.7659 92.4703 40.8198 92.7032 40.9902C93.254 41.2144 93.7736 41.237 94.2776 41.1589C94.7816 41.0807 95.4333 41.2893 96.3334 41.769C97.2336 42.2488 97.8157 42.6746 98.1111 43.2481C98.4064 43.8216 98.7401 43.9763 99.1433 43.9138C99.8488 43.8044 101.383 43.0503 103.816 41.4344C105.707 40.3154 106.94 39.6082 107.645 39.4988C107.947 39.4519 108.165 39.5214 108.196 39.723C108.258 40.1262 107.933 40.6927 107.237 41.5233C106.54 42.3539 105.339 43.2627 103.82 44.1176C102.216 45.0889 100.952 45.5944 100.146 45.7195C99.8434 45.7664 99.5567 45.9141 99.2855 46.1625C99.0144 46.411 98.6199 47.1948 98.2183 48.5989C96.8815 52.6253 94.3406 54.8773 90.6112 55.4556C88.3937 55.7995 86.9809 54.6767 86.5745 52.056C86.387 50.8465 86.5557 49.272 87.112 47.5343C87.5604 46.4325 87.769 45.7809 87.7378 45.5793C87.7378 45.5793 87.6213 45.4941 87.5205 45.5097C87.4262 45.5244 87.125 45.6615 86.593 45.9036C85.9878 46.1789 85.0841 46.5902 83.8466 47.1117C83.0715 47.4383 82.3972 47.7493 81.9245 48.0291C81.351 48.3244 80.8713 49.2246 80.2837 50.7608C79.6962 52.2969 78.8915 53.7636 77.8695 55.1607C76.8475 56.5578 75.9802 57.6213 75.0504 58.2816ZM70.8138 56.2549C70.892 56.7588 71.2256 56.9135 71.8304 56.8197C72.6368 56.6947 73.5822 56.1352 74.7362 54.9241C75.1777 54.4427 75.7043 53.845 76.1996 53.0456C76.695 52.2463 77.0896 51.4625 77.4841 50.6788C77.5145 50.5995 77.544 50.5226 77.5727 50.448C77.8215 49.8007 77.9989 49.339 77.9709 49.1583C77.9396 48.9567 77.2028 48.8645 75.7916 49.0833C74.3805 49.3022 73.4421 49.2412 72.7592 48.8311L71.727 48.1654L71.0941 50.7408C70.5691 52.6801 70.5168 54.3397 70.72 55.6501L70.8138 56.2549ZM77.7973 46.7079C78.2161 46.7462 78.4177 46.7149 78.5185 46.6993C78.5185 46.6993 78.6037 46.5829 78.7584 46.2492C78.9287 46.0164 78.9513 45.4968 78.8419 44.7912C78.7901 44.4572 78.6692 44.1339 78.5274 43.7552C78.4981 43.6767 78.4678 43.5959 78.4371 43.5121C78.3664 43.4125 78.304 43.3189 78.246 43.2321C78.0878 42.9949 77.9629 42.8078 77.7925 42.6831C77.5596 42.5128 77.1408 42.4745 76.722 42.4362C75.8148 42.5769 75.071 43.1052 74.4592 43.8193C73.7467 44.5492 73.538 45.2008 73.6318 45.8056C73.6631 46.0072 73.6944 46.2088 73.9272 46.3791C74.1601 46.5494 74.4781 46.6033 74.8969 46.6416C75.3313 46.7807 75.7501 46.8189 76.3549 46.7252C76.5211 46.727 76.6729 46.7312 76.8138 46.735C77.1986 46.7454 77.5022 46.7537 77.7973 46.7079ZM89.5601 52.0059C89.6539 52.6107 90.0884 52.7498 90.6931 52.656C91.4995 52.5309 92.4605 52.0722 93.5451 51.0783C94.2733 50.4493 94.8694 49.6343 95.3335 48.6334C95.7976 47.6324 96.0914 46.8643 96.0132 46.3603C95.9819 46.1588 95.8499 45.9728 95.6483 46.0041C95.4467 46.0353 95.2451 46.0666 95.0123 45.8963C94.6786 45.7416 93.8793 45.2462 92.4822 44.2242L91.4219 46.0401C90.7719 47.1731 90.3234 48.2749 89.9914 49.4618C89.5585 50.6643 89.482 51.5019 89.5601 52.0059Z" fill="white"/>
<path fill-rule="evenodd" clip-rule="evenodd" d="M75.0504 58.2816C74.1207 58.9418 73.2447 59.2841 72.3376 59.4248C71.2288 59.5967 70.2748 59.435 69.4598 58.8389C69.0097 58.599 68.7613 58.3279 68.6136 58.0411C68.4815 57.8552 68.4034 57.3512 68.2783 56.5448C67.8719 53.9242 67.7226 52.2958 67.7992 51.4582C67.8757 50.6206 68.0374 49.6665 68.4702 48.464C69.3359 46.0589 70.4501 43.925 71.9447 42.2481C73.3386 40.5869 74.8263 39.5304 76.439 39.2803C77.447 39.124 78.5487 39.5725 79.527 40.5562C80.5053 41.5399 81.1812 42.5705 81.3532 43.6792C81.405 44.0132 81.3506 44.5762 81.2869 45.2358C81.2737 45.3724 81.2601 45.5131 81.247 45.6569C81.7749 45.575 82.291 45.4163 82.8725 45.2375C82.9572 45.2114 83.0432 45.185 83.1308 45.1583C83.7356 45.0645 84.6115 44.7222 85.6577 44.1471C86.7039 43.572 88.2229 42.7171 90.2145 41.5825C90.8732 41.1707 91.4467 40.8753 91.8499 40.8128C92.1523 40.7659 92.4703 40.8198 92.7032 40.9902C93.254 41.2144 93.7736 41.237 94.2776 41.1589C94.7816 41.0807 95.4333 41.2893 96.3334 41.769C97.2336 42.2488 97.8157 42.6746 98.1111 43.2481C98.4064 43.8216 98.7401 43.9763 99.1433 43.9138C99.8488 43.8044 101.383 43.0503 103.816 41.4344C105.707 40.3154 106.94 39.6082 107.645 39.4988C107.947 39.4519 108.165 39.5214 108.196 39.723C108.258 40.1262 107.933 40.6927 107.237 41.5233C106.54 42.3539 105.339 43.2627 103.82 44.1176C102.216 45.0889 100.952 45.5944 100.146 45.7195C99.8434 45.7664 99.5567 45.9141 99.2855 46.1625C99.0144 46.411 98.6199 47.1948 98.2183 48.5989C96.8815 52.6253 94.3406 54.8773 90.6112 55.4556C88.3937 55.7995 86.9809 54.6767 86.5745 52.056C86.387 50.8465 86.5557 49.272 87.112 47.5343C87.5604 46.4325 87.769 45.7809 87.7378 45.5793C87.7378 45.5793 87.6213 45.4941 87.5205 45.5097C87.4262 45.5244 87.125 45.6615 86.593 45.9036C85.9878 46.1789 85.0841 46.5902 83.8466 47.1117C83.0715 47.4383 82.3972 47.7493 81.9245 48.0291C81.351 48.3244 80.8713 49.2246 80.2837 50.7608C79.6962 52.2969 78.8915 53.7636 77.8695 55.1607C76.8475 56.5578 75.9802 57.6213 75.0504 58.2816ZM70.8138 56.2549C70.892 56.7588 71.2256 56.9135 71.8304 56.8197C72.6368 56.6947 73.5822 56.1352 74.7362 54.9241C75.1777 54.4427 75.7043 53.845 76.1996 53.0456C76.695 52.2463 77.0896 51.4625 77.4841 50.6788C77.5145 50.5995 77.544 50.5226 77.5727 50.448C77.8215 49.8007 77.9989 49.339 77.9709 49.1583C77.9396 48.9567 77.2028 48.8645 75.7916 49.0833C74.3805 49.3022 73.4421 49.2412 72.7592 48.8311L71.727 48.1654L71.0941 50.7408C70.5691 52.6801 70.5168 54.3397 70.72 55.6501L70.8138 56.2549ZM77.7973 46.7079C78.2161 46.7462 78.4177 46.7149 78.5185 46.6993C78.5185 46.6993 78.6037 46.5829 78.7584 46.2492C78.9287 46.0164 78.9513 45.4968 78.8419 44.7912C78.7901 44.4572 78.6692 44.1339 78.5274 43.7552C78.4981 43.6767 78.4678 43.5959 78.4371 43.5121C78.3664 43.4125 78.304 43.3189 78.246 43.2321C78.0878 42.9949 77.9629 42.8078 77.7925 42.6831C77.5596 42.5128 77.1408 42.4745 76.722 42.4362C75.8148 42.5769 75.071 43.1052 74.4592 43.8193C73.7467 44.5492 73.538 45.2008 73.6318 45.8056C73.6631 46.0072 73.6944 46.2088 73.9272 46.3791C74.1601 46.5494 74.4781 46.6033 74.8969 46.6416C75.3313 46.7807 75.7501 46.8189 76.3549 46.7252C76.5211 46.727 76.6729 46.7312 76.8138 46.735C77.1986 46.7454 77.5022 46.7537 77.7973 46.7079ZM89.5601 52.0059C89.6539 52.6107 90.0884 52.7498 90.6931 52.656C91.4995 52.5309 92.4605 52.0722 93.5451 51.0783C94.2733 50.4493 94.8694 49.6343 95.3335 48.6334C95.7976 47.6324 96.0914 46.8643 96.0132 46.3603C95.9819 46.1588 95.8499 45.9728 95.6483 46.0041C95.4467 46.0353 95.2451 46.0666 95.0123 45.8963C94.6786 45.7416 93.8793 45.2462 92.4822 44.2242L91.4219 46.0401C90.7719 47.1731 90.3234 48.2749 89.9914 49.4618C89.5585 50.6643 89.482 51.5019 89.5601 52.0059Z" fill="url(#paint3_linear_4_10)"/>
<path fill-rule="evenodd" clip-rule="evenodd" d="M116.683 55.9542C115.583 56.8473 114.42 57.3373 113.21 57.5248L112.606 57.6186C110.124 57.5906 108.586 55.6615 108.024 52.0328C107.774 50.4201 107.795 48.5589 108.156 46.232C109.419 38.398 111.906 30.4772 115.386 22.2994C117.969 16.325 120.693 11.2578 123.526 6.89609C126.375 2.63521 128.698 0.313704 130.512 0.0323498C131.924 -0.186482 132.786 0.712054 133.168 2.51074C133.433 4.22426 133.087 6.65197 132.114 9.69306C130.499 14.5884 128.039 20.0275 124.619 25.9254C121.214 31.924 117.785 37.1006 114.114 41.3858C113.247 42.4491 112.651 43.2641 112.31 43.7298C111.884 44.3119 111.66 44.8629 111.521 45.2974C111.509 45.3489 111.496 45.4025 111.483 45.458C111.361 45.9792 111.198 46.6754 111.143 47.5235C110.952 49.6175 111.001 51.2615 111.188 52.4711C111.501 54.487 112.161 55.4168 113.185 55.3613C114.596 55.1424 115.758 54.6525 116.742 53.6742C117.641 52.8123 118.524 51.8496 119.375 50.6854L127.398 41.1837C127.467 40.9665 127.638 40.7336 128.041 40.6711C128.243 40.6399 128.46 40.7094 128.475 40.8102C128.507 41.0118 128.437 41.229 128.368 41.4462C128.341 41.5292 128.312 41.5974 128.288 41.6557C128.248 41.7501 128.219 41.8184 128.229 41.8807C125.588 45.4898 124.141 47.4691 124.002 47.9035C121.904 51.0158 119.425 53.6709 116.683 55.9542ZM114.043 34.2746C112.893 38.1689 112.383 40.2091 112.446 40.6123L113.638 38.9823C114.42 38.0353 115.357 36.7546 116.348 35.1559L119.367 30.6622C121.704 27.0998 123.848 22.9484 125.897 18.1922C127.861 13.5524 129.182 9.42516 129.892 6.01214L130.446 2.93277C130.431 2.83198 130.314 2.74681 130.213 2.76244C129.709 2.8406 128.741 3.91969 127.394 5.8833C124.669 9.60894 121.829 14.591 119.091 20.899C116.786 26.0046 115.093 30.3959 114.043 34.2746Z" fill="white"/>
<path fill-rule="evenodd" clip-rule="evenodd" d="M116.683 55.9542C115.583 56.8473 114.42 57.3373 113.21 57.5248L112.606 57.6186C110.124 57.5906 108.586 55.6615 108.024 52.0328C107.774 50.4201 107.795 48.5589 108.156 46.232C109.419 38.398 111.906 30.4772 115.386 22.2994C117.969 16.325 120.693 11.2578 123.526 6.89609C126.375 2.63521 128.698 0.313704 130.512 0.0323498C131.924 -0.186482 132.786 0.712054 133.168 2.51074C133.433 4.22426 133.087 6.65197 132.114 9.69306C130.499 14.5884 128.039 20.0275 124.619 25.9254C121.214 31.924 117.785 37.1006 114.114 41.3858C113.247 42.4491 112.651 43.2641 112.31 43.7298C111.884 44.3119 111.66 44.8629 111.521 45.2974C111.509 45.3489 111.496 45.4025 111.483 45.458C111.361 45.9792 111.198 46.6754 111.143 47.5235C110.952 49.6175 111.001 51.2615 111.188 52.4711C111.501 54.487 112.161 55.4168 113.185 55.3613C114.596 55.1424 115.758 54.6525 116.742 53.6742C117.641 52.8123 118.524 51.8496 119.375 50.6854L127.398 41.1837C127.467 40.9665 127.638 40.7336 128.041 40.6711C128.243 40.6399 128.46 40.7094 128.475 40.8102C128.507 41.0118 128.437 41.229 128.368 41.4462C128.341 41.5292 128.312 41.5974 128.288 41.6557C128.248 41.7501 128.219 41.8184 128.229 41.8807C125.588 45.4898 124.141 47.4691 124.002 47.9035C121.904 51.0158 119.425 53.6709 116.683 55.9542ZM114.043 34.2746C112.893 38.1689 112.383 40.2091 112.446 40.6123L113.638 38.9823C114.42 38.0353 115.357 36.7546 116.348 35.1559L119.367 30.6622C121.704 27.0998 123.848 22.9484 125.897 18.1922C127.861 13.5524 129.182 9.42516 129.892 6.01214L130.446 2.93277C130.431 2.83198 130.314 2.74681 130.213 2.76244C129.709 2.8406 128.741 3.91969 127.394 5.8833C124.669 9.60894 121.829 14.591 119.091 20.899C116.786 26.0046 115.093 30.3959 114.043 34.2746Z" fill="url(#paint4_linear_4_10)"/>
<defs>
<linearGradient id="paint0_linear_4_10" x1="133.956" y1="-10.2061" x2="15.3884" y2="115.954" gradientUnits="userSpaceOnUse">
<stop stop-color="#FF0000"/>
<stop offset="0.25" stop-color="#FFC700"/>
<stop offset="0.5" stop-color="#45F7D7"/>
<stop offset="0.75" stop-color="#4643FF"/>
<stop offset="1" stop-color="#FF00D6"/>
</linearGradient>
<linearGradient id="paint1_linear_4_10" x1="133.956" y1="-10.2061" x2="15.3884" y2="115.954" gradientUnits="userSpaceOnUse">
<stop stop-color="#FF0000"/>
<stop offset="0.25" stop-color="#FFC700"/>
<stop offset="0.5" stop-color="#45F7D7"/>
<stop offset="0.75" stop-color="#4643FF"/>
<stop offset="1" stop-color="#FF00D6"/>
</linearGradient>
<linearGradient id="paint2_linear_4_10" x1="133.956" y1="-10.2061" x2="15.3884" y2="115.954" gradientUnits="userSpaceOnUse">
<stop stop-color="#FF0000"/>
<stop offset="0.25" stop-color="#FFC700"/>
<stop offset="0.5" stop-color="#45F7D7"/>
<stop offset="0.75" stop-color="#4643FF"/>
<stop offset="1" stop-color="#FF00D6"/>
</linearGradient>
<linearGradient id="paint3_linear_4_10" x1="133.956" y1="-10.2061" x2="15.3884" y2="115.954" gradientUnits="userSpaceOnUse">
<stop stop-color="#FF0000"/>
<stop offset="0.25" stop-color="#FFC700"/>
<stop offset="0.5" stop-color="#45F7D7"/>
<stop offset="0.75" stop-color="#4643FF"/>
<stop offset="1" stop-color="#FF00D6"/>
</linearGradient>
<linearGradient id="paint4_linear_4_10" x1="133.956" y1="-10.2061" x2="15.3884" y2="115.954" gradientUnits="userSpaceOnUse">
<stop stop-color="#FF0000"/>
<stop offset="0.25" stop-color="#FFC700"/>
<stop offset="0.5" stop-color="#45F7D7"/>
<stop offset="0.75" stop-color="#4643FF"/>
<stop offset="1" stop-color="#FF00D6"/>
</linearGradient>
</defs>
</svg>
