<svg width="20" height="20" viewBox="0 0 20 20" fill="none" xmlns="http://www.w3.org/2000/svg">
<path d="M13.125 14.375V17.1875C13.125 17.705 12.705 18.125 12.1875 18.125H4.0625C3.81386 18.125 3.5754 18.0262 3.39959 17.8504C3.22377 17.6746 3.125 17.4361 3.125 17.1875V6.5625C3.125 6.045 3.545 5.625 4.0625 5.625H5.625C6.04381 5.62472 6.46192 5.65928 6.875 5.72834M13.125 14.375H15.9375C16.455 14.375 16.875 13.955 16.875 13.4375V9.375C16.875 5.65833 14.1725 2.57417 10.625 1.97834C10.2119 1.90928 9.79381 1.87472 9.375 1.875H7.8125C7.295 1.875 6.875 2.295 6.875 2.8125V5.72834M13.125 14.375H7.8125C7.56386 14.375 7.3254 14.2762 7.14959 14.1004C6.97377 13.9246 6.875 13.6861 6.875 13.4375V5.72834M16.875 11.25V9.6875C16.875 8.94158 16.5787 8.22621 16.0512 7.69876C15.5238 7.17132 14.8084 6.875 14.0625 6.875H12.8125C12.5639 6.875 12.3254 6.77623 12.1496 6.60041C11.9738 6.4246 11.875 6.18614 11.875 5.9375V4.6875C11.875 4.31816 11.8023 3.95243 11.6609 3.6112C11.5196 3.26998 11.3124 2.95993 11.0512 2.69876C10.7901 2.4376 10.48 2.23043 10.1388 2.08909C9.79757 1.94775 9.43184 1.875 9.0625 1.875H8.125" stroke="white" stroke-linecap="round" stroke-linejoin="round"/>
</svg>
