<svg width="24" height="24" viewBox="0 0 24 24" fill="none" xmlns="http://www.w3.org/2000/svg">
<path d="M11.554 3.99999V3.55299H8.73805C8.3986 3.54627 8.06121 3.60733 7.74565 3.73258C7.43008 3.85784 7.14267 4.04478 6.90023 4.28247C6.65779 4.52016 6.4652 4.80382 6.33372 5.11684C6.20224 5.42987 6.13452 5.76597 6.13452 6.10549C6.13452 6.44501 6.20224 6.78111 6.33372 7.09414C6.4652 7.40717 6.65779 7.69082 6.90023 7.92851C7.14267 8.1662 7.43008 8.35314 7.74565 8.4784C8.06121 8.60365 8.3986 8.66471 8.73805 8.65799H11.554V3.99999Z" fill="#DF5A33" stroke="#DF5A33" stroke-width="0.895"/>
<path d="M11.5541 9.89502V9.44702H8.73806C8.06096 9.44702 7.4116 9.716 6.93282 10.1948C6.45403 10.6736 6.18506 11.3229 6.18506 12C6.18506 12.6771 6.45403 13.3265 6.93282 13.8053C7.4116 14.284 8.06096 14.553 8.73806 14.553H11.5541V9.89502Z" fill="#985CF7" stroke="#985CF7" stroke-width="0.895"/>
<path d="M11.5541 15.79V15.342H8.73807C8.06985 15.3553 7.43347 15.63 6.96558 16.1072C6.49768 16.5845 6.2356 17.2262 6.2356 17.8945C6.2356 18.5629 6.49768 19.2046 6.96558 19.6818C7.43347 20.1591 8.06985 20.4338 8.73807 20.447H8.87007C9.58191 20.447 10.2646 20.1643 10.7679 19.6609C11.2713 19.1576 11.5541 18.4749 11.5541 17.763V15.79Z" fill="#5ECC89" stroke="#5ECC89" stroke-width="0.895"/>
<path d="M15.262 9.44702C15.9391 9.44702 16.5885 9.716 17.0673 10.1948C17.5461 10.6736 17.815 11.3229 17.815 12C17.815 12.6771 17.5461 13.3265 17.0673 13.8053C16.5885 14.284 15.9391 14.553 15.262 14.553H14.999C14.3219 14.553 13.6726 14.284 13.1938 13.8053C12.715 13.3265 12.446 12.6771 12.446 12C12.446 11.3229 12.715 10.6736 13.1938 10.1948C13.6726 9.716 14.3219 9.44702 14.999 9.44702H15.262Z" fill="#57B9F8" stroke="#57B9F8" stroke-width="0.895"/>
<path d="M12.446 3.99999V3.55299H15.262C15.6015 3.54627 15.9389 3.60733 16.2544 3.73258C16.57 3.85784 16.8574 4.04478 17.0999 4.28247C17.3423 4.52016 17.5349 4.80382 17.6664 5.11684C17.7978 5.42987 17.8656 5.76597 17.8656 6.10549C17.8656 6.44501 17.7978 6.78111 17.6664 7.09414C17.5349 7.40717 17.3423 7.69082 17.0999 7.92851C16.8574 8.1662 16.57 8.35314 16.2544 8.4784C15.9389 8.60365 15.6015 8.66471 15.262 8.65799H12.446V3.99999Z" fill="#EE7A69" stroke="#EE7A69" stroke-width="0.895"/>
</svg>
