<svg width="200" height="200" viewBox="0 0 200 200" fill="none" xmlns="http://www.w3.org/2000/svg">
<g clip-path="url(#clip0_615_858)">
<path d="M200 33.3333C200 51.7428 185.076 66.6667 166.667 66.6667C148.257 66.6667 133.333 51.7428 133.333 33.3333C133.333 14.9238 148.257 7.62939e-06 166.667 7.62939e-06C185.076 7.62939e-06 200 14.9238 200 33.3333Z" fill="white"/>
<path d="M200 100C200 118.409 185.076 133.333 166.667 133.333C148.257 133.333 133.333 118.409 133.333 100C133.333 81.5905 148.257 66.6667 166.667 66.6667C185.076 66.6667 200 81.5905 200 100Z" fill="white"/>
<path d="M200 166.667C200 185.076 185.076 200 166.667 200C148.257 200 133.333 185.076 133.333 166.667C133.333 148.257 148.257 133.333 166.667 133.333C185.076 133.333 200 148.257 200 166.667Z" fill="white"/>
<path d="M133.333 33.3333C133.333 51.7428 118.409 66.6667 100 66.6667C81.5905 66.6667 66.6667 51.7428 66.6667 33.3333C66.6667 14.9238 81.5905 7.62939e-06 100 7.62939e-06C118.409 7.62939e-06 133.333 14.9238 133.333 33.3333Z" fill="white"/>
<path d="M133.333 100C133.333 118.409 118.409 133.333 100 133.333C81.5905 133.333 66.6667 118.409 66.6667 100C66.6667 81.5905 81.5905 66.6667 100 66.6667C118.409 66.6667 133.333 81.5905 133.333 100Z" fill="white"/>
<path d="M133.333 166.667C133.333 185.076 118.409 200 100 200C81.5905 200 66.6667 185.076 66.6667 166.667C66.6667 148.257 81.5905 133.333 100 133.333C118.409 133.333 133.333 148.257 133.333 166.667Z" fill="white"/>
<path d="M66.6667 33.3333C66.6667 51.7428 51.7428 66.6667 33.3333 66.6667C14.9238 66.6667 0 51.7428 0 33.3333C0 14.9238 14.9238 7.6294e-06 33.3333 7.6294e-06C51.7428 7.6294e-06 66.6667 14.9238 66.6667 33.3333Z" fill="white"/>
<path d="M66.6667 100C66.6667 118.409 51.7428 133.333 33.3333 133.333C14.9238 133.333 0 118.409 0 100C0 81.5905 14.9238 66.6667 33.3333 66.6667C51.7428 66.6667 66.6667 81.5905 66.6667 100Z" fill="white"/>
<path d="M66.6667 166.667C66.6667 185.076 51.7428 200 33.3333 200C14.9238 200 0 185.076 0 166.667C0 148.257 14.9238 133.333 33.3333 133.333C51.7428 133.333 66.6667 148.257 66.6667 166.667Z" fill="white"/>
</g>
<defs>
<clipPath id="clip0_615_858">
<rect width="200" height="200" fill="white"/>
</clipPath>
</defs>
</svg>
