<svg width="200" height="200" viewBox="0 0 200 200" fill="none" xmlns="http://www.w3.org/2000/svg">
<g clip-path="url(#clip0_615_869)">
<path d="M149.999 50C149.999 77.6142 127.613 100 99.999 100C72.3848 100 49.999 77.6142 49.999 50C49.999 22.3858 72.3848 7.62939e-06 99.999 7.62939e-06C127.613 7.62939e-06 149.999 22.3858 149.999 50Z" fill="white"/>
<path d="M149.999 150C149.999 177.615 127.613 200 99.999 200C72.3848 200 49.999 177.615 49.999 150C49.999 122.386 72.3848 100 99.999 100C127.613 100 149.999 122.386 149.999 150Z" fill="white"/>
<path d="M0 200.001C13.2608 200.001 25.9785 194.733 35.3553 185.356C44.7322 175.98 50 163.262 50 150.001C50 136.74 44.7322 124.022 35.3553 114.646C25.9785 105.269 13.2608 100.001 1.19209e-05 100.001L0 200.001Z" fill="white"/>
<path d="M200 200.001C186.739 200.001 174.021 194.733 164.645 185.356C155.268 175.98 150 163.262 150 150.001C150 136.74 155.268 124.022 164.645 114.646C174.021 105.269 186.739 100.001 200 100.001V200.001Z" fill="white"/>
<path d="M1.19209e-05 100.001C13.2608 100.001 25.9785 94.7322 35.3553 85.3553C44.7322 75.9785 49.999 63.2608 49.999 50C49.999 36.7392 44.7322 24.0215 35.3553 14.6447C25.9785 5.26785 13.2608 1.02114e-05 1.19209e-05 7.6294e-06V100.001Z" fill="white"/>
<path d="M200 100.001C186.739 100.001 174.021 94.7322 164.645 85.3553C155.268 75.9785 149.999 63.2608 149.999 50C149.999 36.7392 155.268 24.0215 164.645 14.6447C174.021 5.26785 186.739 1.02114e-05 200 7.6294e-06V100.001Z" fill="white"/>
</g>
<defs>
<clipPath id="clip0_615_869">
<rect width="200" height="200" fill="white"/>
</clipPath>
</defs>
</svg>
