<svg width="200" height="200" viewBox="0 0 200 200" fill="none" xmlns="http://www.w3.org/2000/svg">
<g clip-path="url(#clip0_615_744)">
<path fill-rule="evenodd" clip-rule="evenodd" d="M200 25C200 38.8071 188.807 50 175 50C161.193 50 150 38.8071 150 25C150 11.1929 161.193 7.62939e-06 175 7.62939e-06C188.807 7.62939e-06 200 11.1929 200 25ZM200 175C200 188.807 188.807 200 175 200C161.193 200 150 188.807 150 175C150 161.193 161.193 150 175 150C188.807 150 200 161.193 200 175ZM175 125C188.807 125 200 113.807 200 100C200 86.1929 188.807 75 175 75C161.193 75 150 86.1929 150 100C150 113.807 161.193 125 175 125ZM125 175C125 188.807 113.807 200 100 200C86.1929 200 75 188.807 75 175C75 161.193 86.1929 150 100 150C113.807 150 125 161.193 125 175ZM100 50C113.807 50 125 38.8071 125 25C125 11.1929 113.807 7.62939e-06 100 7.62939e-06C86.1929 7.62939e-06 75 11.1929 75 25C75 38.8071 86.1929 50 100 50ZM50 175C50 188.807 38.8071 200 25 200C11.1929 200 0 188.807 0 175C0 161.193 11.1929 150 25 150C38.8071 150 50 161.193 50 175ZM100 125C113.807 125 125 113.807 125 100C125 86.1929 113.807 75 100 75C86.1929 75 75 86.1929 75 100C75 113.807 86.1929 125 100 125ZM50 25C50 38.8071 38.8071 50 25 50C11.1929 50 0 38.8071 0 25C0 11.1929 11.1929 7.62939e-06 25 7.62939e-06C38.8071 7.62939e-06 50 11.1929 50 25ZM25 125C38.8071 125 50 113.807 50 100C50 86.1929 38.8071 75 25 75C11.1929 75 0 86.1929 0 100C0 113.807 11.1929 125 25 125Z" fill="white"/>
</g>
<defs>
<clipPath id="clip0_615_744">
<rect width="200" height="200" fill="white"/>
</clipPath>
</defs>
</svg>
