<svg width="200" height="200" viewBox="0 0 200 200" fill="none" xmlns="http://www.w3.org/2000/svg">
<g clip-path="url(#clip0_615_970)">
<path d="M98.0271 106.086C57.5173 231.305 -11.2221 181.153 94.8442 103.762C-11.2221 181.153 -37.4781 100 93.628 100C-37.4781 100 -11.2221 18.854 94.8442 96.2383C-11.2221 18.854 57.5173 -31.3047 98.0271 93.9142C57.5173 -31.3047 142.505 -31.3047 101.968 93.9142C142.484 -31.3047 211.224 18.854 105.151 96.2383C211.224 18.854 237.48 100 106.367 100C237.48 100 211.224 181.153 105.151 103.762C211.224 181.153 142.484 231.305 101.968 106.086C142.484 231.305 57.5173 231.305 98.0271 106.086Z" fill="white"/>
</g>
<defs>
<clipPath id="clip0_615_970">
<rect width="200" height="200" fill="white" transform="translate(200) rotate(90)"/>
</clipPath>
</defs>
</svg>
