<svg width="200" height="200" viewBox="0 0 200 200" fill="none" xmlns="http://www.w3.org/2000/svg">
<g clip-path="url(#clip0_615_777)">
<path fill-rule="evenodd" clip-rule="evenodd" d="M200 100C200 86.1929 188.807 75 175 75L160.711 75L170.678 65.033C180.441 55.2699 180.441 39.4408 170.678 29.6777C160.915 19.9146 145.085 19.9146 135.322 29.6777L125 40L125 25C125 11.1929 113.807 0 100 0C86.1929 0 75 11.1929 75 25L75 39L65.2563 29.2563C55.4932 19.4932 39.6641 19.4932 29.901 29.2563C20.1379 39.0194 20.1379 54.8485 29.901 64.6116L40.2893 75L25 75C11.1929 75 -3.76761e-06 86.1929 -4.37114e-06 100C-4.97467e-06 113.807 11.1929 125 25 125L40 125L29.2563 135.744C19.4932 145.507 19.4932 161.336 29.2563 171.099C39.0194 180.862 54.8485 180.862 64.6116 171.099L75 160.711L75 175C75 188.807 86.1929 200 100 200C113.807 200 125 188.807 125 175L125 159.711L135.967 170.678C145.73 180.441 161.559 180.441 171.322 170.678C181.085 160.915 181.085 145.085 171.322 135.322L161 125L175 125C188.807 125 200 113.807 200 100Z" fill="white"/>
</g>
<defs>
<clipPath id="clip0_615_777">
<rect width="200" height="200" fill="white" transform="translate(200) rotate(90)"/>
</clipPath>
</defs>
</svg>
