<svg width="200" height="200" viewBox="0 0 200 200" fill="none" xmlns="http://www.w3.org/2000/svg">
<g clip-path="url(#clip0_615_649)">
<path d="M80.319 32.5C76.1017 17.5 81.8237 0 99.9998 0C118.176 0 123.898 17.5 119.681 32.5C116.566 43.5769 108.086 69.6502 103.863 82.5309C103.38 84.0041 104.334 85.5516 105.765 86.1478C107.196 86.744 108.92 86.3004 109.62 84.9174C115.742 72.8237 128.182 48.3888 133.813 38.3537C141.438 24.765 157.858 16.4368 170.71 29.2892C183.563 42.1416 175.235 58.5625 161.646 66.1868C151.611 71.8173 127.176 84.258 115.083 90.3797C113.699 91.0799 113.256 92.8041 113.852 94.235C114.448 95.6661 115.996 96.6199 117.469 96.1369C130.35 91.9139 156.423 83.4333 167.5 80.319C182.5 76.1017 200 81.8237 200 99.9998C200 118.176 182.5 123.898 167.5 119.681C156.423 116.566 130.35 108.086 117.469 103.863C115.996 103.38 114.448 104.334 113.852 105.765C113.256 107.196 113.7 108.92 115.083 109.62C127.176 115.742 151.611 128.183 161.646 133.813C175.235 141.438 183.563 157.858 170.711 170.711C157.858 183.563 141.437 175.235 133.813 161.646C128.183 151.611 115.742 127.176 109.62 115.083C108.92 113.7 107.196 113.256 105.765 113.852C104.334 114.448 103.38 115.996 103.863 117.469C108.086 130.35 116.567 156.423 119.681 167.5C123.898 182.5 118.176 200 100 200C81.8241 200 76.1015 182.5 80.319 167.5C83.4335 156.423 91.914 130.35 96.137 117.469C96.6199 115.996 95.6662 114.448 94.2351 113.852C92.8042 113.256 91.08 113.7 90.3799 115.083C84.2583 127.176 71.8176 151.611 66.187 161.646C58.5625 175.235 42.142 183.563 29.2895 170.711C16.4371 157.858 24.765 141.438 38.3539 133.813C48.3891 128.183 72.8238 115.742 84.9174 109.62C86.3005 108.92 86.744 107.196 86.1478 105.765C85.5516 104.334 84.004 103.38 82.5308 103.863C69.6501 108.086 43.5769 116.567 32.5 119.681C17.5 123.898 -2.7538e-06 118.176 0 100C2.38351e-06 81.8241 17.5 76.1015 32.5 80.319C43.5769 83.4335 69.6501 91.914 82.5308 96.137C84.004 96.6199 85.5515 95.6661 86.1478 94.2351C86.744 92.8041 86.3005 91.0799 84.9174 90.3798C72.8237 84.2581 48.3889 71.8175 38.3538 66.1869C24.7651 58.5624 16.4369 42.1419 29.2893 29.2894C42.1418 16.437 58.5626 24.7649 66.1869 38.3537C71.8175 48.389 84.2582 72.8238 90.3799 84.9174C91.08 86.3004 92.8042 86.744 94.2351 86.1478C95.6662 85.5515 96.6199 84.004 96.137 82.5309C91.9139 69.6502 83.4333 43.5769 80.319 32.5Z" fill="white"/>
</g>
<defs>
<clipPath id="clip0_615_649">
<rect width="200" height="200" fill="white"/>
</clipPath>
</defs>
</svg>
