<svg width="200" height="200" viewBox="0 0 200 200" fill="none" xmlns="http://www.w3.org/2000/svg">
<g clip-path="url(#clip0_615_809)">
<path d="M171.219 80.9174C189.016 84.9391 200 91.1553 200 100C200 108.845 189.016 115.061 171.219 119.083C184.622 131.465 191.026 142.34 186.604 150C182.181 157.66 169.561 157.551 152.136 152.135C157.552 169.56 157.661 182.18 150.001 186.603C142.341 191.025 131.465 184.62 119.083 171.217C115.061 189.016 108.845 200 100 200C91.1553 200 84.9391 189.016 80.9174 171.219C68.5358 184.621 57.6607 191.025 50.001 186.603C42.3411 182.18 42.4496 169.56 47.8658 152.135C30.4413 157.551 17.8209 157.66 13.3984 150C8.97604 142.34 15.3802 131.465 28.7828 119.083C10.9842 115.061 -1.50684e-06 108.845 0 100C3.86626e-07 91.155 10.9843 84.9387 28.7828 80.917C15.3802 68.5352 8.97604 57.6598 13.3984 50C17.8209 42.3401 30.4414 42.4487 47.8658 47.8648C42.4496 30.4404 42.3411 17.8199 50.001 13.3975C57.6607 8.97513 68.5358 15.379 80.9174 28.7812C84.9391 10.9836 91.1553 0 100 0C108.845 0 115.061 10.9843 119.083 28.7829C131.465 15.3795 142.341 8.97495 150.001 13.3975C157.661 17.8199 157.552 30.4404 152.136 47.8648C169.561 42.4487 182.181 42.3401 186.604 50C191.026 57.6599 184.622 68.5354 171.219 80.9174Z" fill="white"/>
</g>
<defs>
<clipPath id="clip0_615_809">
<rect width="200" height="200" fill="white"/>
</clipPath>
</defs>
</svg>
