<svg width="200" height="200" viewBox="0 0 200 200" fill="none" xmlns="http://www.w3.org/2000/svg">
<g clip-path="url(#clip0_615_669)">
<path fill-rule="evenodd" clip-rule="evenodd" d="M80.319 34.1111C76.1017 17.4444 81.8237 0 99.9998 0C118.176 0 123.899 17.4444 119.681 34.1111C118.045 40.5779 115.317 51.9458 112.592 63.438C109.26 77.4867 107.595 84.511 111.542 88.4581C115.489 92.4052 122.513 90.7394 136.562 87.4079C148.054 84.6826 159.422 81.9553 165.889 80.319C182.556 76.1016 200 81.8237 200 99.9998C200 118.176 182.556 123.899 165.889 119.681C159.422 118.045 148.054 115.317 136.562 112.592C122.513 109.26 115.489 107.595 111.542 111.542C107.595 115.489 109.261 122.513 112.592 136.562C115.317 148.054 118.045 159.422 119.681 165.889C123.898 182.556 118.176 200 100 200C81.824 200 76.1015 182.556 80.319 165.889C81.9555 159.422 84.6827 148.054 87.408 136.562C90.7395 122.513 92.4053 115.489 88.4582 111.542C84.5111 107.595 77.4867 109.261 63.4381 112.592C51.9458 115.317 40.5779 118.045 34.1111 119.681C17.4444 123.898 -2.7538e-06 118.176 0 100C2.38351e-06 81.824 17.4444 76.1015 34.1111 80.319C40.5779 81.9555 51.9458 84.6828 63.438 87.408C77.4867 90.7395 84.511 92.4053 88.4581 88.4582C92.4052 84.5111 90.7394 77.4868 87.4079 63.4381C84.6826 51.9459 81.9553 40.5779 80.319 34.1111ZM50 73C62.7025 73 73 62.7025 73 50C73 37.2975 62.7025 27 50 27C37.2975 27 27 37.2975 27 50C27 62.7025 37.2975 73 50 73ZM150 73C162.703 73 173 62.7025 173 50C173 37.2975 162.703 27 150 27C137.297 27 127 37.2975 127 50C127 62.7025 137.297 73 150 73ZM73 150C73 162.703 62.7025 173 50 173C37.2975 173 27 162.703 27 150C27 137.297 37.2975 127 50 127C62.7025 127 73 137.297 73 150ZM150 173C162.703 173 173 162.703 173 150C173 137.297 162.703 127 150 127C137.297 127 127 137.297 127 150C127 162.703 137.297 173 150 173Z" fill="white"/>
</g>
<defs>
<clipPath id="clip0_615_669">
<rect width="200" height="200" fill="white"/>
</clipPath>
</defs>
</svg>
