<svg width="200" height="200" viewBox="0 0 200 200" fill="none" xmlns="http://www.w3.org/2000/svg">
<g clip-path="url(#clip0_615_769)">
<path d="M160 180C182.091 180 200 144.183 200 100C200 55.8172 182.091 20 160 20C148.053 20 137.329 30.4751 130 47.0835C122.671 30.4751 111.947 20 100 20C88.0531 20 77.3294 30.4751 70 47.0835C62.6705 30.4751 51.9469 20 40 20C17.9086 20 1.93129e-06 55.8172 0 100C-1.93129e-06 144.183 17.9086 180 40 180C51.9469 180 62.6706 169.525 70 152.916C77.3294 169.525 88.0531 180 100 180C111.947 180 122.671 169.525 130 152.916C137.329 169.525 148.053 180 160 180Z" fill="white"/>
</g>
<defs>
<clipPath id="clip0_615_769">
<rect width="200" height="200" fill="white" transform="translate(200) rotate(90)"/>
</clipPath>
</defs>
</svg>
