<svg width="200" height="200" viewBox="0 0 200 200" fill="none" xmlns="http://www.w3.org/2000/svg">
<g clip-path="url(#clip0_615_950)">
<path fill-rule="evenodd" clip-rule="evenodd" d="M150 200C177.614 200 200 177.614 200 150C200 122.386 177.614 100 150 100C177.614 100 200 77.6142 200 50C200 22.3858 177.614 -9.78513e-07 150 0C122.386 0 100 22.3858 100 50C100 22.3858 77.6142 0 50 0C22.3858 0 -9.78513e-07 22.3858 -2.18557e-06 50C-3.39263e-06 77.6142 22.3858 100 50 100C22.3858 100 9.90914e-06 122.386 8.70208e-06 150C7.49502e-06 177.614 22.3858 200 50 200C77.6077 200 99.9894 177.625 100 150.02C100.011 177.625 122.392 200 150 200Z" fill="white"/>
</g>
<defs>
<clipPath id="clip0_615_950">
<rect width="200" height="200" fill="white" transform="translate(200) rotate(90)"/>
</clipPath>
</defs>
</svg>
