<svg width="200" height="200" viewBox="0 0 200 200" fill="none" xmlns="http://www.w3.org/2000/svg">
<g clip-path="url(#clip0_615_945)">
<path d="M200 158C200 181.196 181.196 200 158 200H68V136H136L136 68H200L200 158Z" fill="white"/>
<path d="M5.50764e-06 42C6.52156e-06 18.804 18.8041 1.39876e-06 42 1.39876e-06L132 1.39876e-06V64H64L64 132L1.57361e-06 132L5.50764e-06 42Z" fill="white"/>
<path d="M136 32C136 14.3269 150.327 -2.9438e-06 168 0C185.673 7.72517e-07 200 14.3269 200 32C200 49.6731 185.673 64 168 64C150.327 64 136 49.6731 136 32Z" fill="white"/>
<path d="M100 132C117.673 132 132 117.673 132 100C132 82.3269 117.673 68 100 68C82.3269 68 68 82.3269 68 100C68 117.673 82.3269 132 100 132Z" fill="white"/>
<path d="M32 200C49.6731 200 64 185.673 64 168C64 150.327 49.6731 136 32 136C14.3269 136 7.72516e-07 150.327 0 168C-7.72516e-07 185.673 14.3269 200 32 200Z" fill="white"/>
</g>
<defs>
<clipPath id="clip0_615_945">
<rect width="200" height="200" fill="white" transform="translate(200) rotate(90)"/>
</clipPath>
</defs>
</svg>
