<svg width="200" height="200" viewBox="0 0 200 200" fill="none" xmlns="http://www.w3.org/2000/svg">
<g clip-path="url(#clip0_615_943)">
<path d="M106.107 91.88C110.208 83.2474 113.703 68.1094 114.541 49.8387C115.863 21.0233 107.493 0 98.7983 0C93.1433 0 88.1846 9.43944 85.4088 23.6128C87.6901 18.1918 90.5939 15.202 94.0515 15.202C101.717 15.202 116.524 40.9794 108.592 79.315C107.646 83.8888 106.828 88.0673 106.107 91.88Z" fill="white"/>
<path d="M93.8927 108.12C89.7925 116.753 86.2971 131.891 85.4589 150.161C84.137 178.977 92.5072 200 101.202 200C106.857 200 111.815 190.561 114.591 176.387C112.31 181.808 109.406 184.798 105.949 184.798C98.2827 184.798 83.4761 159.021 91.4076 120.685C92.3539 116.111 93.1722 111.933 93.8927 108.12Z" fill="white"/>
<path d="M108.12 106.107C116.753 110.208 131.891 113.703 150.161 114.541C178.977 115.863 200 107.493 200 98.7983C200 93.1433 190.561 88.1846 176.387 85.4088C181.808 87.6901 184.798 90.5939 184.798 94.0515C184.798 101.717 159.021 116.524 120.685 108.592C116.111 107.646 111.933 106.828 108.12 106.107Z" fill="white"/>
<path d="M91.88 93.8927C83.2474 89.7925 68.1094 86.2971 49.8387 85.4589C21.0233 84.137 1.14015e-06 92.5072 0 101.202C-7.41566e-07 106.857 9.43944 111.815 23.6128 114.591C18.1918 112.31 15.202 109.406 15.202 105.949C15.202 98.2827 40.9794 83.4761 79.315 91.4076C83.8888 92.3539 88.0673 93.1722 91.88 93.8927Z" fill="white"/>
<path d="M110.06 98.5765C119.064 95.3717 132.24 87.1391 145.751 74.8125C167.062 55.3717 176.009 34.5873 169.861 28.4394C165.862 24.4407 155.681 27.6091 143.696 35.6683C149.143 33.4482 153.31 33.3875 155.755 35.8323C161.176 41.2529 153.418 69.9501 120.702 91.4491C116.799 94.014 113.266 96.3901 110.06 98.5765Z" fill="white"/>
<path d="M89.9398 101.423C80.9363 104.628 67.7605 112.86 54.2485 125.187C32.9383 144.628 23.9911 165.412 30.1391 171.56C34.1378 175.559 44.3187 172.39 56.3036 164.331C50.8573 166.551 46.6899 166.612 44.245 164.167C38.8245 158.747 46.582 130.049 79.2978 108.551C83.201 105.986 86.7344 103.609 89.9398 101.423Z" fill="white"/>
<path d="M101.423 110.06C104.628 119.063 112.861 132.239 125.187 145.751C144.628 167.062 165.412 176.009 171.56 169.861C175.559 165.862 172.391 155.681 164.331 143.696C166.552 149.142 166.612 153.31 164.167 155.755C158.747 161.175 130.05 153.418 108.551 120.702C105.986 116.799 103.61 113.265 101.423 110.06Z" fill="white"/>
<path d="M98.5768 89.9395C95.3719 80.9361 87.1394 67.7603 74.8127 54.2483C55.3719 32.938 34.5875 23.9909 28.4396 30.1388C24.4409 34.1375 27.6093 44.3185 35.6685 56.3034C33.4484 50.8571 33.3877 46.6897 35.8326 44.2448C41.2531 38.8243 69.9503 46.5818 91.4493 79.2975C94.0143 83.2008 96.3903 86.7342 98.5768 89.9395Z" fill="white"/>
<path d="M102.535 90.161C103.02 80.6164 100.456 65.2931 94.2383 48.0925C84.4324 20.9647 68.6541 4.74476 60.6214 8.072C55.3968 10.2361 54.428 20.8546 57.2874 35.0113C57.3204 29.1299 58.8591 25.2565 62.0535 23.9334C69.1358 20.9998 92.6799 39.1488 100.023 77.6015C100.899 82.1892 101.742 86.3629 102.535 90.161Z" fill="white"/>
<path d="M97.465 109.839C96.9804 119.384 99.5441 134.707 105.762 151.908C115.568 179.035 131.346 195.255 139.379 191.928C144.603 189.764 145.572 179.146 142.713 164.989C142.68 170.87 141.141 174.744 137.946 176.067C130.864 179 107.32 160.851 99.9774 122.399C99.1014 117.811 98.2584 113.637 97.465 109.839Z" fill="white"/>
<path d="M109.839 102.535C119.384 103.02 134.707 100.456 151.908 94.2384C179.035 84.4325 195.255 68.6542 191.928 60.6215C189.764 55.3969 179.145 54.4281 164.989 57.2875C170.87 57.3205 174.744 58.8592 176.067 62.0536C179 69.1359 160.851 92.68 122.399 100.023C117.811 100.899 113.637 101.742 109.839 102.535Z" fill="white"/>
<path d="M90.1609 97.4651C80.6164 96.9805 65.293 99.5442 48.0924 105.762C20.9646 115.568 4.74467 131.346 8.07191 139.379C10.236 144.603 20.8545 145.572 35.0112 142.713C29.1298 142.68 25.2564 141.141 23.9333 137.947C20.9997 130.864 39.1487 107.32 77.6014 99.9775C82.1891 99.1015 86.3628 98.2585 90.1609 97.4651Z" fill="white"/>
<path d="M108.75 94.835C115.841 88.4287 124.864 75.7806 132.63 59.2215C144.879 33.1054 145.191 10.4792 137.158 7.15199C131.934 4.98791 123.74 11.8112 115.752 23.8434C119.934 19.7081 123.761 18.0572 126.955 19.3803C134.037 22.3139 137.852 51.7954 115.854 84.1776C113.23 88.041 110.874 91.5884 108.75 94.835Z" fill="white"/>
<path d="M91.2502 105.165C84.1585 111.571 75.1361 124.219 67.3699 140.778C55.1215 166.894 54.8092 189.52 62.8419 192.848C68.0665 195.012 76.2599 188.188 84.2484 176.156C80.0662 180.292 76.2393 181.942 73.0449 180.619C65.9627 177.686 62.1477 148.204 84.1459 115.822C86.7704 111.959 89.1255 108.411 91.2502 105.165Z" fill="white"/>
<path d="M105.165 108.75C111.571 115.841 124.219 124.864 140.778 132.63C166.894 144.878 189.521 145.191 192.848 137.158C195.012 131.933 188.189 123.74 176.156 115.751C180.292 119.934 181.943 123.761 180.619 126.955C177.686 134.037 148.204 137.852 115.822 115.854C111.959 113.229 108.411 110.874 105.165 108.75Z" fill="white"/>
<path d="M94.8352 91.25C88.4289 84.1584 75.7808 75.1359 59.2216 67.3697C33.1056 55.1213 10.4794 54.809 7.15217 62.8417C4.98808 68.0663 11.8114 76.2598 23.8436 84.2482C19.7082 80.0661 18.0574 76.2391 19.3805 73.0448C22.3141 65.9625 51.7955 62.1475 84.1777 84.1457C88.0412 86.7702 91.5885 89.1254 94.8352 91.25Z" fill="white"/>
</g>
<defs>
<clipPath id="clip0_615_943">
<rect width="200" height="200" fill="white" transform="translate(200) rotate(90)"/>
</clipPath>
</defs>
</svg>
