<svg width="200" height="200" viewBox="0 0 200 200" fill="none" xmlns="http://www.w3.org/2000/svg">
<g clip-path="url(#clip0_615_955)">
<path d="M100 50C100 77.6142 122.386 100 150 100C122.392 100 100.011 122.375 100 149.98C99.9894 122.375 77.6077 100 50 100C77.6142 100 100 77.6142 100 50C100 22.3858 77.6143 6.78525e-06 50 4.37114e-06L2.40011e-05 0L2.18155e-05 50C2.06084e-05 77.6142 22.3858 100 50 100C22.3858 100 3.39263e-06 122.386 2.18557e-06 150L0 200H50C77.6077 200 99.9894 177.625 100 150.02C100.011 177.625 122.392 200 150 200H200V150C200 122.386 177.614 100 150 100C177.614 100 200 77.6143 200 50L200 2.62268e-05L150 1.74846e-05C122.386 1.26563e-05 100 22.3858 100 50Z" fill="white"/>
</g>
<defs>
<clipPath id="clip0_615_955">
<rect width="200" height="200" fill="white" transform="translate(200) rotate(90)"/>
</clipPath>
</defs>
</svg>
