<svg width="200" height="200" viewBox="0 0 200 200" fill="none" xmlns="http://www.w3.org/2000/svg">
<g clip-path="url(#clip0_615_925)">
<path d="M186.048 180.392C190.823 175.617 194.506 169.844 196.887 163.403C199.268 156.962 200.3 149.978 199.925 142.851C199.55 135.723 197.774 128.592 194.7 121.863C191.626 115.135 187.313 108.941 182.008 103.636C176.703 98.3308 170.51 94.018 163.781 90.9439C157.053 87.8698 149.921 86.0945 142.794 85.7193C135.666 85.3442 128.682 86.3766 122.241 88.7576C115.8 91.1386 110.027 94.8215 105.252 99.5961L186.048 180.392Z" fill="white"/>
<path d="M13.9519 19.6068C9.17731 24.3814 5.49437 30.1542 3.11339 36.5956C0.7324 43.0369 -0.300003 50.0207 0.0751221 57.1481C0.450248 64.2756 2.22556 71.4071 5.29968 78.1356C8.37381 84.864 12.6866 91.0576 17.9917 96.3628C23.2968 101.668 29.4904 105.981 36.2189 109.055C42.9473 112.129 50.0789 113.904 57.2063 114.279C64.3338 114.654 71.3175 113.622 77.7589 111.241C84.2002 108.86 89.973 105.177 94.7476 100.403L13.9519 19.6068Z" fill="white"/>
<path d="M19.6077 186.048C24.3823 190.822 30.155 194.505 36.5964 196.886C43.0377 199.267 50.0215 200.3 57.149 199.925C64.2764 199.549 71.408 197.774 78.1364 194.7C84.8649 191.626 91.0585 187.313 96.3636 182.008C101.669 176.703 105.981 170.509 109.056 163.781C112.13 157.052 113.905 149.921 114.28 142.793C114.655 135.666 113.623 128.682 111.242 122.241C108.861 115.799 105.178 110.027 100.403 105.252L19.6077 186.048Z" fill="white"/>
<path d="M180.39 13.9519C175.616 9.17732 169.843 5.49438 163.402 3.1134C156.96 0.732422 149.977 -0.299976 142.849 0.0751547C135.722 0.450286 128.59 2.2256 121.862 5.29973C115.133 8.37386 108.94 12.6866 103.634 17.9917C98.3293 23.2969 94.0165 29.4905 90.9424 36.2189C87.8683 42.9474 86.0929 50.0789 85.7178 57.2064C85.3427 64.3338 86.3751 71.3176 88.7561 77.759C91.137 84.2003 94.82 89.9731 99.5946 94.7477L180.39 13.9519Z" fill="white"/>
</g>
<defs>
<clipPath id="clip0_615_925">
<rect width="200" height="200" fill="white"/>
</clipPath>
</defs>
</svg>
