<svg width="200" height="200" viewBox="0 0 200 200" fill="none" xmlns="http://www.w3.org/2000/svg">
<g clip-path="url(#clip0_615_931)">
<path d="M65 2.99999C65 1.34314 63.6561 -0.00723021 62.001 0.0692122C54.4893 0.416149 47.0869 2.06436 40.1256 4.94782C32.2394 8.21438 25.0739 13.0022 19.0381 19.038C13.0023 25.0739 8.21439 32.2394 4.94783 40.1256C1.68128 48.0117 7.71648e-07 56.4641 0 65C-7.71648e-07 73.5359 1.68127 81.9882 4.94783 89.8744C8.21438 97.7606 13.0022 104.926 19.0381 110.962C25.0739 116.998 32.2394 121.786 40.1256 125.052C47.0869 127.936 54.4893 129.584 62.001 129.931C63.6561 130.007 65 128.657 65 127L65 2.99999Z" fill="white"/>
<path d="M197 65C198.657 65 200.007 63.6561 199.931 62.001C199.584 54.4893 197.936 47.0869 195.052 40.1256C191.786 32.2394 186.998 25.0739 180.962 19.0381C174.926 13.0023 167.761 8.21439 159.874 4.94783C151.988 1.68128 143.536 1.38692e-06 135 0C126.464 -1.38692e-06 118.012 1.68127 110.126 4.94783C102.239 8.21438 95.0738 13.0022 89.038 19.0381C83.0022 25.0739 78.2144 32.2394 74.9478 40.1256C72.0643 47.0869 70.4161 54.4893 70.0692 62.001C69.9928 63.6561 71.3431 65 73 65L197 65Z" fill="white"/>
<path d="M135 197C135 198.657 136.344 200.007 137.999 199.931C145.511 199.584 152.913 197.936 159.874 195.052C167.761 191.786 174.926 186.998 180.962 180.962C186.998 174.926 191.786 167.761 195.052 159.874C198.319 151.988 200 143.536 200 135C200 126.464 198.319 118.012 195.052 110.126C191.786 102.239 186.998 95.0738 180.962 89.038C174.926 83.0022 167.761 78.2144 159.874 74.9478C152.913 72.0643 145.511 70.4161 137.999 70.0692C136.344 69.9927 135 71.3431 135 73L135 197Z" fill="white"/>
<path d="M3.00001 135C1.34316 135 -0.00721382 136.344 0.0692283 137.999C0.416164 145.511 2.06437 152.913 4.94783 159.874C8.21439 167.761 13.0023 174.926 19.0381 180.962C25.0739 186.998 32.2394 191.786 40.1256 195.052C48.0117 198.319 56.4641 200 65 200C73.5359 200 81.9883 198.319 89.8744 195.052C97.7606 191.786 104.926 186.998 110.962 180.962C116.998 174.926 121.786 167.761 125.052 159.874C127.936 152.913 129.584 145.511 129.931 137.999C130.007 136.344 128.657 135 127 135L3.00001 135Z" fill="white"/>
</g>
<defs>
<clipPath id="clip0_615_931">
<rect width="200" height="200" fill="white"/>
</clipPath>
</defs>
</svg>
