<svg width="200" height="200" viewBox="0 0 200 200" fill="none" xmlns="http://www.w3.org/2000/svg">
<g clip-path="url(#clip0_615_767)">
<path d="M100 184.171C92.4769 187.234 84.1184 188.602 75.4541 188.083C59.5563 187.13 43.9309 179.9 32.0155 167.985C20.1 156.069 12.8705 140.444 11.9172 124.546C11.3977 115.882 12.7657 107.523 15.8287 100L100 184.171Z" fill="white"/>
<path d="M184.171 100C187.234 92.4769 188.602 84.1184 188.083 75.4541C187.13 59.5563 179.9 43.9309 167.985 32.0155C156.069 20.1 140.444 12.8705 124.546 11.9172C115.882 11.3977 107.523 12.7657 100 15.8287L184.171 100Z" fill="white"/>
<path d="M197.121 61.1517C199.282 55.9027 200.266 50.0786 199.938 44.0489C199.336 32.9853 194.363 22.1354 186.114 13.8863C177.865 5.6371 167.015 0.664316 155.951 0.0618735C149.921 -0.26646 144.097 0.717978 138.848 2.87925L197.121 61.1517Z" fill="white"/>
<path d="M2.87923 138.848C0.717963 144.097 -0.266476 149.921 0.0618572 155.951C0.664305 167.015 5.63709 177.865 13.8863 186.114C22.1354 194.363 32.9853 199.336 44.0489 199.938C50.0786 200.266 55.9027 199.282 61.1517 197.121L2.87923 138.848Z" fill="white"/>
<path d="M138.848 197.121C144.097 199.282 149.921 200.266 155.951 199.938C167.015 199.336 177.865 194.363 186.114 186.114C194.363 177.865 199.336 167.015 199.938 155.951C200.266 149.921 199.282 144.097 197.121 138.848L138.848 197.121Z" fill="white"/>
<path d="M61.1517 2.87923C55.9027 0.717963 50.0787 -0.266476 44.0489 0.0618571C32.9853 0.664304 22.1355 5.63709 13.8863 13.8863C5.63711 22.1354 0.664332 32.9853 0.0618875 44.0489C-0.266447 50.0786 0.717991 55.9027 2.87926 61.1517L61.1517 2.87923Z" fill="white"/>
<path d="M15.8287 100C12.7657 92.4769 11.3977 84.1184 11.9172 75.4541C12.8705 59.5563 20.1 43.9309 32.0155 32.0155C43.931 20.1 59.5563 12.8704 75.4541 11.9172C84.1184 11.3977 92.4769 12.7657 100 15.8287L15.8287 100Z" fill="white"/>
<path d="M100 184.171C107.523 187.234 115.882 188.602 124.546 188.083C140.444 187.13 156.069 179.9 167.985 167.985C179.9 156.069 187.13 140.444 188.083 124.546C188.602 115.882 187.234 107.523 184.171 100L100 184.171Z" fill="white"/>
<path d="M142.086 142.086C118.842 165.329 81.1576 165.329 57.9143 142.086C34.6711 118.842 34.6711 81.1576 57.9143 57.9143C81.1576 34.6711 118.842 34.6711 142.086 57.9143C165.329 81.1576 165.329 118.842 142.086 142.086Z" fill="white"/>
</g>
<defs>
<clipPath id="clip0_615_767">
<rect width="200" height="200" fill="white" transform="translate(200) rotate(90)"/>
</clipPath>
</defs>
</svg>
