<svg width="200" height="200" viewBox="0 0 200 200" fill="none" xmlns="http://www.w3.org/2000/svg">
<g clip-path="url(#clip0_615_759)">
<path d="M99.9995 200C126.521 200 151.957 189.464 170.71 170.711C189.464 151.957 200 126.522 200 100C200 73.4783 189.464 48.0429 170.71 29.2893C151.957 10.5357 126.521 -2.94836e-05 99.9995 -3.46475e-05L99.9995 100L99.9995 200Z" fill="white"/>
<path d="M-0.000488281 200C26.5212 200 51.9565 189.464 70.7102 170.711C89.4638 151.957 99.9995 126.522 99.9995 100C99.9995 73.4783 89.4638 48.0429 70.7102 29.2892C51.9566 10.5356 26.5212 -0.000116906 -0.000464439 -0.00012207L-0.000488281 200Z" fill="white"/>
</g>
<defs>
<clipPath id="clip0_615_759">
<rect width="200" height="200" fill="white"/>
</clipPath>
</defs>
</svg>
