<svg width="200" height="200" viewBox="0 0 200 200" fill="none" xmlns="http://www.w3.org/2000/svg">
<g clip-path="url(#clip0_615_786)">
<path d="M27 199.999C9.66626 172.698 3.8147e-06 137.062 0 99.9993C0 62.9366 9.66625 27.3006 27 0V199.999Z" fill="white"/>
<path d="M200 200C173.478 200 148.043 189.464 129.289 170.711C110.536 151.957 100 126.522 100 100C100 73.4784 110.536 48.043 129.289 29.2893C148.043 10.5357 173.478 9.5351e-06 200 4.37114e-06L200 200Z" fill="white"/>
<path d="M60.2893 175.485C70.5101 186.396 82.7156 194.701 96 200V0C82.7156 5.2988 70.5101 13.6039 60.2893 24.5148C41.5357 44.5347 31 71.6875 31 99.9998C31 128.312 41.5357 155.465 60.2893 175.485Z" fill="white"/>
</g>
<defs>
<clipPath id="clip0_615_786">
<rect width="200" height="200" fill="white"/>
</clipPath>
</defs>
</svg>
