<svg width="200" height="200" viewBox="0 0 200 200" fill="none" xmlns="http://www.w3.org/2000/svg">
<g clip-path="url(#clip0_615_773)">
<path fill-rule="evenodd" clip-rule="evenodd" d="M29.2893 155.71C10.5357 136.956 -1.94778e-05 111.521 -1.83185e-05 84.999L99.6285 84.999C81.1975 84.9013 63.5425 77.5374 50.5025 64.4975C37.375 51.3699 30 33.5652 30 15L100 15L170 15C170 33.5652 162.625 51.3699 149.497 64.4975C136.457 77.5375 118.802 84.9013 100.371 84.999L200 84.999C200 111.521 189.464 136.956 170.711 155.71C151.957 174.463 126.522 184.999 100 184.999C73.4783 184.999 48.0429 174.463 29.2893 155.71Z" fill="white"/>
</g>
<defs>
<clipPath id="clip0_615_773">
<rect width="200" height="200" fill="white" transform="translate(200) rotate(90)"/>
</clipPath>
</defs>
</svg>
