<svg width="200" height="200" viewBox="0 0 200 200" fill="none" xmlns="http://www.w3.org/2000/svg">
<path d="M130.084 13.766C137.736 21.4565 142.463 31.5379 143.544 42.2631C153.798 25.8856 156.072 17.3351 156.072 17.3351C166.106 24.6619 172.834 35.6947 174.774 48.0065C176.467 58.7486 174.394 69.6965 168.996 79.0118C186.871 71.8196 193.711 66.2453 193.711 66.2453C197.544 78.1004 196.534 91.0001 190.903 102.107C185.99 111.797 177.91 119.43 168.094 123.777C186.762 128.518 195.556 128.049 195.556 128.049C191.723 139.904 183.361 149.743 172.31 155.402C162.667 160.34 151.667 161.742 141.183 159.461C153.513 174.323 160.902 179.139 160.902 179.139C150.867 186.465 138.348 189.486 126.097 187.536C115.408 185.835 105.688 180.471 98.541 172.432C99.8237 191.739 102.985 200 102.985 200C90.5818 200 78.6865 195.048 69.916 186.234C62.2638 178.544 57.5373 168.462 56.4564 157.737C46.2021 174.115 43.9283 182.665 43.9283 182.665C33.8939 175.338 27.1665 164.305 25.2262 151.994C23.5333 141.252 25.6056 130.304 31.004 120.989C13.1294 128.181 6.28897 133.755 6.28897 133.755C2.45615 121.9 3.46634 109 9.09731 97.8937C14.0104 88.2031 22.09 80.5702 31.9056 76.223C13.2383 71.4827 4.44411 71.9517 4.44411 71.9517C8.27694 60.0966 16.6388 50.2572 27.6902 44.5982C37.3327 39.6606 48.3335 38.2582 58.8171 40.5395C46.4873 25.6773 39.0983 20.8618 39.0983 20.8618C49.1328 13.535 61.6524 10.5143 73.903 12.4643C84.5917 14.1657 94.3118 19.5295 101.459 27.5678C100.176 8.26064 97.0149 0 97.0149 0C109.418 2.42706e-06 121.313 4.95178 130.084 13.766Z" fill="white"/>
</svg>
