<svg width="200" height="200" viewBox="0 0 200 200" fill="none" xmlns="http://www.w3.org/2000/svg">
<g clip-path="url(#clip0_615_782)">
<path d="M50 102C50 121.891 57.9018 140.968 71.967 155.033C86.0322 169.098 105.109 177 125 177C144.891 177 163.968 169.098 178.033 155.033C192.098 140.968 200 121.891 200 102L50 102Z" fill="white"/>
<path d="M0 98C0 78.1088 7.90176 59.0322 21.967 44.967C36.0322 30.9018 55.1088 23 75 23C94.8912 23 113.968 30.9018 128.033 44.967C142.098 59.0322 150 78.1088 150 98L0 98Z" fill="white"/>
</g>
<defs>
<clipPath id="clip0_615_782">
<rect width="200" height="200" fill="white"/>
</clipPath>
</defs>
</svg>
