<svg width="200" height="200" viewBox="0 0 200 200" fill="none" xmlns="http://www.w3.org/2000/svg">
<g clip-path="url(#clip0_617_1130)">
<path d="M130.537 1.31327e-05C137.434 -0.00691299 144.051 2.72602 148.932 7.59759L192.304 50.8826C197.185 55.7542 199.931 62.3653 199.938 69.2617L200 130.537C200.007 137.434 197.274 144.051 192.402 148.932L149.117 192.304C144.246 197.185 137.635 199.931 130.738 199.938L69.4625 200C62.5661 200.007 55.9495 197.274 51.0681 192.402L7.69605 149.117C2.81469 144.246 0.0684794 137.635 0.0615533 130.738L1.31327e-05 69.4625C-0.00691299 62.5661 2.72602 55.9495 7.59759 51.0681L50.8826 7.69606C55.7542 2.81469 62.3653 0.0684794 69.2617 0.0615533L130.537 1.31327e-05Z" fill="white"/>
</g>
<defs>
<clipPath id="clip0_617_1130">
<rect width="200" height="200" fill="white"/>
</clipPath>
</defs>
</svg>
