<svg width="200" height="200" viewBox="0 0 200 200" fill="none" xmlns="http://www.w3.org/2000/svg">
<g clip-path="url(#clip0_620_2260)">
<mask id="mask0_620_2260" style="mask-type:alpha" maskUnits="userSpaceOnUse" x="0" y="0" width="200" height="200">
<g clip-path="url(#clip1_620_2260)">
<path d="M149.921 50.0003C122.336 50.0858 100 72.4386 100 100C100 72.4386 77.6641 50.085 50.0789 49.9998C77.6636 49.9146 100 27.5616 100 0C100 27.5616 122.336 49.9154 149.921 50.0003Z" fill="white"/>
<path d="M99.8421 100C72.2572 100.086 49.921 122.439 49.921 150C49.921 122.439 27.5851 100.085 0 99.9998C27.5846 99.9146 49.921 77.5616 49.921 50C49.921 77.5616 72.2567 99.9154 99.8421 100Z" fill="white"/>
<path d="M200 100C172.415 100.086 150.079 122.439 150.079 150C150.079 122.439 127.743 100.085 100.158 99.9998C127.743 99.9146 150.079 77.5616 150.079 50C150.079 77.5616 172.415 99.9154 200 100Z" fill="white"/>
<path d="M149.921 150C122.336 150.086 100 172.439 100 200C100 172.439 77.6641 150.085 50.0789 150C77.6636 149.915 100 127.562 100 100C100 127.562 122.336 149.915 149.921 150Z" fill="white"/>
</g>
</mask>
<g mask="url(#mask0_620_2260)">
<path d="M200 0H0V200H200V0Z" fill="white"/>
<path d="M200 0H0V200H200V0Z" fill="#FFE500"/>
<g filter="url(#filter0_f_620_2260)">
<path d="M210 84H109V200H210V84Z" fill="#FFC700"/>
<path d="M153 -16H46V86H153V-16Z" fill="#FF58E4"/>
<ellipse cx="185.5" cy="112.5" rx="60.5" ry="41.5" fill="#FFE500" fill-opacity="0.79"/>
<ellipse cx="38" cy="125" rx="49" ry="31" fill="#00F0FF"/>
</g>
</g>
</g>
<defs>
<filter id="filter0_f_620_2260" x="-73.5" y="-78.5" width="382" height="341" filterUnits="userSpaceOnUse" color-interpolation-filters="sRGB">
<feFlood flood-opacity="0" result="BackgroundImageFix"/>
<feBlend mode="normal" in="SourceGraphic" in2="BackgroundImageFix" result="shape"/>
<feGaussianBlur stdDeviation="31.25" result="effect1_foregroundBlur_620_2260"/>
</filter>
<clipPath id="clip0_620_2260">
<rect width="200" height="200" fill="white"/>
</clipPath>
<clipPath id="clip1_620_2260">
<rect width="200" height="200" fill="white"/>
</clipPath>
</defs>
</svg>
