<svg width="200" height="200" viewBox="0 0 200 200" fill="none" xmlns="http://www.w3.org/2000/svg">
<g clip-path="url(#clip0_620_2190)">
<mask id="mask0_620_2190" style="mask-type:alpha" maskUnits="userSpaceOnUse" x="0" y="0" width="200" height="200">
<g clip-path="url(#clip1_620_2190)">
<path d="M58.5786 3.55575e-06L100 31.4846L141.421 0L148.448 51.5523L200 58.5786L168.515 100L200 141.421L148.448 148.448L141.421 200L100 168.515L58.5786 200L51.5523 148.448L3.55575e-06 141.421L31.4846 100L0 58.5786L51.5523 51.5523L58.5786 3.55575e-06Z" fill="white"/>
</g>
</mask>
<g mask="url(#mask0_620_2190)">
<path d="M200 0H0V200H200V0Z" fill="white"/>
<path d="M200 0H0V200H200V0Z" fill="white" fill-opacity="0.75"/>
<g filter="url(#filter0_f_620_2190)">
<path d="M219.5 70.25H80.625V188H219.5V70.25Z" fill="#00C5DF"/>
<ellipse cx="125" cy="47.5" rx="88" ry="60.5" fill="#FF3216"/>
<ellipse cx="100" cy="139.5" rx="88" ry="60.5" fill="#FFE500" fill-opacity="0.79"/>
</g>
</g>
</g>
<defs>
<filter id="filter0_f_620_2190" x="-50.5" y="-75.5" width="332.5" height="338" filterUnits="userSpaceOnUse" color-interpolation-filters="sRGB">
<feFlood flood-opacity="0" result="BackgroundImageFix"/>
<feBlend mode="normal" in="SourceGraphic" in2="BackgroundImageFix" result="shape"/>
<feGaussianBlur stdDeviation="31.25" result="effect1_foregroundBlur_620_2190"/>
</filter>
<clipPath id="clip0_620_2190">
<rect width="200" height="200" fill="white"/>
</clipPath>
<clipPath id="clip1_620_2190">
<rect width="200" height="200" fill="white"/>
</clipPath>
</defs>
</svg>
