<svg width="200" height="200" viewBox="0 0 200 200" fill="none" xmlns="http://www.w3.org/2000/svg">
<g clip-path="url(#clip0_615_903)">
<path d="M100 0C94.5939 0 90.3208 4.58266 90.6983 9.97559L96.3899 91.2845L42.9204 29.7658C39.374 25.6855 33.112 25.4666 29.2893 29.2893C25.4666 33.112 25.6855 39.374 29.7658 42.9204L91.2845 96.3899L9.97559 90.6983C4.58266 90.3208 2.02027e-06 94.5939 0 100C0 105.406 4.58266 109.679 9.97559 109.302L91.2845 103.61L29.7658 157.08C25.6855 160.626 25.4666 166.888 29.2893 170.711C33.112 174.533 39.374 174.314 42.9204 170.234L96.3899 108.716L90.6983 190.024C90.3208 195.417 94.5939 200 100 200C105.406 200 109.679 195.417 109.302 190.024L103.61 108.716L157.08 170.234C160.626 174.314 166.888 174.533 170.711 170.711C174.533 166.888 174.314 160.626 170.234 157.08L108.715 103.61L190.024 109.302C195.417 109.679 200 105.406 200 100C200 94.5939 195.417 90.3208 190.024 90.6983L108.716 96.3899L170.234 42.9204C174.314 39.374 174.533 33.112 170.711 29.2893C166.888 25.4666 160.626 25.6855 157.08 29.7658L103.61 91.2845L109.302 9.97559C109.679 4.58266 105.406 0 100 0Z" fill="white"/>
</g>
<defs>
<clipPath id="clip0_615_903">
<rect width="200" height="200" fill="white"/>
</clipPath>
</defs>
</svg>
